<?xml version="1.0" encoding="UTF-8"?>
<svg xmlns="http://www.w3.org/2000/svg" fill="#E0144C" id="Layer_1" data-name="Layer 1" viewBox="0 0 24 24">
  <path d="m17.063,3.257l1.671-3c.133-.242.439-.328.68-.193.241.134.328.438.193.68l-1.671,3c-.091.164-.262.257-.437.257-.083,0-.166-.021-.243-.063-.241-.134-.328-.438-.193-.68Zm6.895,2.028c-.112-.253-.406-.366-.659-.257l-3,1.321c-.253.111-.368.407-.257.659.083.188.266.299.458.299.067,0,.136-.014.201-.042l3-1.321c.253-.111.368-.407.257-.659ZM6.063,3.743c.091.164.262.257.437.257.083,0,.166-.021.243-.063.241-.134.328-.438.193-.68L5.266.257c-.134-.242-.439-.327-.68-.193-.241.134-.328.438-.193.68l1.671,3Zm-2.362,2.606l-3-1.321c-.251-.108-.547.003-.659.257-.111.252.004.548.257.659l3,1.321c.065.028.134.042.201.042.192,0,.375-.111.458-.299.111-.252-.004-.548-.257-.659Zm16.299,5.65c0,2.583-1.259,5.02-3.368,6.519-.396.282-.632.736-.632,1.215v1.267c0,1.654-1.346,3-3,3h-2c-1.683,0-3-1.377-3-3.136v-1.132c0-.478-.239-.934-.64-1.219-2.456-1.752-3.71-4.706-3.273-7.711.513-3.521,3.457-6.36,7.003-6.752,2.307-.256,4.527.45,6.245,1.987,1.693,1.517,2.665,3.689,2.665,5.962Zm-5,9v-1h-6v.864c0,1.218.859,2.136,2,2.136h2c1.103,0,2-.897,2-2Zm4-9c0-1.988-.85-3.89-2.332-5.217-1.301-1.164-2.931-1.783-4.658-1.783-.268,0-.538.015-.811.045-3.1.342-5.675,2.824-6.122,5.902-.383,2.632.714,5.22,2.863,6.752.454.324.771.787.933,1.301h2.627v-5.051c-1.14-.232-2-1.242-2-2.449,0-.276.224-.5.5-.5s.5.224.5.5c0,.827.673,1.5,1.5,1.5s1.5-.673,1.5-1.5c0-.276.224-.5.5-.5s.5.224.5.5c0,1.208-.86,2.217-2,2.449v5.051h2.626c.161-.513.475-.975.926-1.296,1.847-1.312,2.948-3.444,2.948-5.704Z"/>
</svg>
