<svg width="20" height="19" viewBox="0 0 20 19" fill="none" xmlns="http://www.w3.org/2000/svg">
<path d="M4.82474 2.29649C4.82474 3.5648 3.74469 4.59298 2.41237 4.59298C1.08006 4.59298 0 3.5648 0 2.29649C0 1.02817 1.08006 0 2.41237 0C3.74469 0 4.82474 1.02817 4.82474 2.29649Z" fill="#220771"/>
<path d="M0.329897 6.28099H4.45361V19H0.329897V6.28099Z" fill="#220771"/>
<path d="M11.0928 6.28099H6.96907V19H11.0928C11.0928 19 11.0928 14.9959 11.0928 12.4923C11.0928 10.9896 11.5969 9.48037 13.6082 9.48037C15.8814 9.48037 15.8677 11.4469 15.8571 12.9703C15.8432 14.9617 15.8763 16.9939 15.8763 19H20V12.2872C19.9651 8.00087 18.8678 6.02583 15.2577 6.02583C13.1139 6.02583 11.7849 7.01651 11.0928 7.91281V6.28099Z" fill="#220771"/>
</svg>
