<svg width="32" height="32" viewBox="0 0 32 32" fill="none" xmlns="http://www.w3.org/2000/svg">
<g id="close">
<mask id="mask0_2941_6238" style="mask-type:alpha" maskUnits="userSpaceOnUse" x="0" y="0" width="32" height="32">
<rect id="Bounding box" width="32" height="32" fill="#fff"/>
</mask>
<g mask="url(#mask0_2941_6238)">
<path id="close_2" d="M16 17.8667L9.46667 24.4001C9.22223 24.6445 8.91112 24.7667 8.53334 24.7667C8.15556 24.7667 7.84445 24.6445 7.6 24.4001C7.35556 24.1556 7.23334 23.8445 7.23334 23.4667C7.23334 23.089 7.35556 22.7778 7.6 22.5334L14.1333 16.0001L7.6 9.46673C7.35556 9.22229 7.23334 8.91118 7.23334 8.5334C7.23334 8.15562 7.35556 7.84451 7.6 7.60007C7.84445 7.35562 8.15556 7.2334 8.53334 7.2334C8.91112 7.2334 9.22223 7.35562 9.46667 7.60007L16 14.1334L22.5333 7.60007C22.7778 7.35562 23.0889 7.2334 23.4667 7.2334C23.8444 7.2334 24.1556 7.35562 24.4 7.60007C24.6444 7.84451 24.7667 8.15562 24.7667 8.5334C24.7667 8.91118 24.6444 9.22229 24.4 9.46673L17.8667 16.0001L24.4 22.5334C24.6444 22.7778 24.7667 23.089 24.7667 23.4667C24.7667 23.8445 24.6444 24.1556 24.4 24.4001C24.1556 24.6445 23.8444 24.7667 23.4667 24.7667C23.0889 24.7667 22.7778 24.6445 22.5333 24.4001L16 17.8667Z" fill="#595959"/>
</g>
</g>
</svg>
