<svg xmlns="http://www.w3.org/2000/svg" width="32" height="32" viewBox="0 0 32 32" fill="none">
<path d="M22.435 8.29289C22.8256 7.90237 23.4587 7.90237 23.8492 8.29289C24.2398 8.68342 24.2398 9.31658 23.8492 9.70711L9.70711 23.8492C9.31658 24.2398 8.68342 24.2398 8.29289 23.8492C7.90237 23.4587 7.90237 22.8256 8.29289 22.435L22.435 8.29289Z" fill="#220771"/>
<path d="M23.8493 22.4353C24.2398 22.8258 24.2398 23.459 23.8493 23.8495C23.4588 24.2401 22.8256 24.2401 22.4351 23.8495L8.29296 9.7074C7.90243 9.31687 7.90243 8.68371 8.29296 8.29318C8.68348 7.90266 9.31665 7.90266 9.70717 8.29318L23.8493 22.4353Z" fill="#220771"/>
</svg>