<svg width="32" height="32" viewBox="0 0 32 32" fill="none" xmlns="http://www.w3.org/2000/svg">
<g id="menu">
<path id="vector" d="M3.75001 12.8054C3.45371 12.8054 3.19908 12.7035 2.98612 12.4998C2.77315 12.2961 2.66667 12.0415 2.66667 11.7359C2.66667 11.4304 2.77315 11.1758 2.98612 10.9721C3.19908 10.7684 3.45371 10.6665 3.75001 10.6665H28.3889C28.6852 10.6665 28.9398 10.7684 29.1528 10.9721C29.3657 11.1758 29.4722 11.4304 29.4722 11.7359C29.4722 12.0415 29.3657 12.2961 29.1528 12.4998C28.9398 12.7035 28.6852 12.8054 28.3889 12.8054H3.75001ZM10.2222 21.4721C9.92593 21.4721 9.6713 21.3702 9.45834 21.1665C9.24538 20.9628 9.13889 20.7082 9.13889 20.4026C9.13889 20.0971 9.24538 19.8424 9.45834 19.6387C9.6713 19.4258 9.92593 19.3193 10.2222 19.3193H28.3889C28.6852 19.3193 28.9398 19.4258 29.1528 19.6387C29.3657 19.8424 29.4722 20.0971 29.4722 20.4026C29.4722 20.7082 29.3657 20.9628 29.1528 21.1665C28.9398 21.3702 28.6852 21.4721 28.3889 21.4721H10.2222Z" fill="#220771"/>
</g>
</svg>
