<svg width="24" height="24" viewBox="0 0 24 24" fill="none" xmlns="http://www.w3.org/2000/svg">
<g id="east">
<mask id="mask0_2995_6765" style="mask-type:alpha" maskUnits="userSpaceOnUse" x="0" y="0" width="24" height="24">
<rect id="Bounding box" width="24" height="24" fill="#D9D9D9"/>
</mask>
<g mask="url(#mask0_2995_6765)">
<path id="east_2" d="M14.3 18.2999C14.1167 18.1166 14.025 17.8833 14.025 17.5999C14.025 17.3166 14.1167 17.0833 14.3 16.8999L18.2 12.9999L3 12.9999C2.71667 12.9999 2.47917 12.9041 2.2875 12.7124C2.09583 12.5208 2 12.2833 2 11.9999C2 11.7166 2.09583 11.4791 2.2875 11.2874C2.47917 11.0958 2.71667 10.9999 3 10.9999L18.2 10.9999L14.3 7.09993C14.1167 6.9166 14.025 6.68326 14.025 6.39993C14.025 6.1166 14.1167 5.88326 14.3 5.69993C14.4833 5.5166 14.7167 5.42493 15 5.42493C15.2833 5.42493 15.5167 5.5166 15.7 5.69993L21.3 11.2999C21.4 11.3999 21.4708 11.5083 21.5125 11.6249C21.5542 11.7416 21.575 11.8666 21.575 11.9999C21.575 12.1333 21.5542 12.2583 21.5125 12.3749C21.4708 12.4916 21.4 12.5999 21.3 12.6999L15.7 18.2999C15.5167 18.4833 15.2833 18.5749 15 18.5749C14.7167 18.5749 14.4833 18.4833 14.3 18.2999Z" fill="#220771"/>
</g>
</g>
</svg>
