<svg xmlns="http://www.w3.org/2000/svg" xmlns:xlink="http://www.w3.org/1999/xlink" width="40pt" height="35pt" viewBox="0 0 40 35"><defs><filter id="alpha" filterUnits="objectBoundingBox" x="0%" y="0%" width="100%" height="100%"></filter><mask id="mask0"><g filter="url(#alpha)"><rect x="0" y="0" width="40" height="35" style="fill:rgb(0%,0%,0%);fill-opacity:0.2;stroke:none;"></rect></g></mask><clipPath id="clip1"><rect width="40" height="35"></rect></clipPath><g id="surface6" clip-path="url(#clip1)"><path style=" stroke:none;fill-rule:nonzero;fill:rgb(60%,60%,60%);fill-opacity:1;" d="M 20.054688 34.164062 C 20.597656 34.539062 18.316406 34.894531 14.960938 34.953125 C 11.601562 35.015625 8.433594 34.761719 7.882812 34.386719 C 7.328125 34.007812 9.601562 33.652344 12.957031 33.589844 C 16.316406 33.53125 19.488281 33.785156 20.050781 34.160156 "></path></g><mask id="mask1"><g filter="url(#alpha)"><rect x="0" y="0" width="40" height="35" style="fill:rgb(0%,0%,0%);fill-opacity:0.278431;stroke:none;"></rect></g></mask><clipPath id="clip2"><rect width="40" height="35"></rect></clipPath><g id="surface9" clip-path="url(#clip2)"><path style=" stroke:none;fill-rule:evenodd;fill:rgb(37.254902%,82.745098%,37.254902%);fill-opacity:1;" d="M 40.019531 6.15625 C 35.289062 2.886719 33.050781 0.0273438 33.050781 0.0273438 C 24.3125 5.214844 15.035156 23.640625 15.035156 23.640625 C 10.683594 17.472656 6.3125 15.75 6.3125 15.75 C 4.347656 18.398438 0.960938 21.925781 0.960938 21.925781 C 8.863281 24.070312 15.496094 31.945312 15.496094 31.945312 C 29.832031 9.253906 40.019531 6.15625 40.019531 6.15625 Z M 40.019531 6.15625 "></path></g></defs><g id="surface1"><path style=" stroke:none;fill-rule:evenodd;fill:rgb(37.254902%,82.745098%,37.254902%);fill-opacity:1;" d="M 39.058594 6.128906 C 34.328125 2.859375 32.089844 0 32.089844 0 C 23.351562 5.1875 14.074219 23.613281 14.074219 23.613281 C 9.726562 17.445312 5.355469 15.722656 5.355469 15.722656 C 3.386719 18.371094 0 21.898438 0 21.898438 C 7.902344 24.042969 14.535156 31.917969 14.535156 31.917969 C 28.875 9.226562 39.058594 6.128906 39.058594 6.128906 Z M 39.058594 6.128906 "></path><use xlink:href="#surface6" mask="url(#mask0)"></use><use xlink:href="#surface9" mask="url(#mask1)"></use></g></svg>