<?xml version="1.0" encoding="UTF-8"?>
<svg fill="#E0144C" xmlns="http://www.w3.org/2000/svg" id="Layer_1" data-name="Layer 1" viewBox="0 0 24 24" width="512" height="512"><path d="m20.969,20.027c-.487-3.659-3.257-6.084-5.669-8.027,2.412-1.943,5.183-4.368,5.669-8.026.133-1.003-.172-2.016-.84-2.777-.666-.76-1.626-1.196-2.635-1.196H6.505c-1.009,0-1.969.437-2.635,1.198-.667.763-.973,1.776-.839,2.781.489,3.656,3.258,6.08,5.669,8.021-2.411,1.942-5.18,4.365-5.669,8.021-.135,1.007.171,2.022.839,2.785.664.759,1.623,1.194,2.629,1.194h11c1.007,0,1.965-.435,2.629-1.193.667-.762.973-1.775.839-2.78Zm-1.592,2.122c-.474.541-1.158.852-1.876.852H6.5c-.719,0-1.403-.311-1.876-.852-.478-.546-.697-1.273-.601-1.994.469-3.508,3.419-5.868,5.79-7.764.119-.095.188-.239.188-.391s-.069-.295-.188-.391c-2.371-1.896-5.32-4.256-5.79-7.764-.096-.719.123-1.444.6-1.99.476-.543,1.162-.855,1.882-.855h10.988c.721,0,1.407.311,1.883.854.478.545.696,1.269.601,1.987-.467,3.509-3.418,5.871-5.79,7.768-.119.095-.187.239-.187.391s.069.295.187.391c2.372,1.897,5.323,4.258,5.79,7.768.096.72-.123,1.445-.601,1.99Zm-1.976-18.515c.042-.15.011-.312-.084-.436-.095-.125-.242-.197-.398-.197H7.138c-.156,0-.303.074-.397.197-.094.124-.126.285-.085.435.601,2.208,2.708,3.894,4.747,5.523,0,0,.186.158.27.244.094.097.223.151.358.151s.264-.054.358-.151c.084-.086.173-.167.268-.243,1.937-1.549,4.132-3.305,4.746-5.524Zm-5.371,4.743h0s0,0,0,0c0,0-.002-.001-.002-.001-1.696-1.357-3.444-2.755-4.178-4.374h8.354c-.754,1.641-2.559,3.084-4.174,4.375Z"/></svg>
