<?xml version="1.0" encoding="UTF-8"?>
<svg fill="#E0144C" xmlns="http://www.w3.org/2000/svg" id="Layer_1" data-name="Layer 1" viewBox="0 0 24 24" width="512" height="512"><path d="m11,23.5c0,.276-.224.5-.5.5h-6c-2.481,0-4.5-2.019-4.5-4.5V4.5C0,2.019,2.019,0,4.5,0h9c2.481,0,4.5,2.019,4.5,4.5v4c0,.276-.224.5-.5.5s-.5-.224-.5-.5v-4c0-1.93-1.57-3.5-3.5-3.5H4.5c-1.93,0-3.5,1.57-3.5,3.5v15c0,1.93,1.57,3.5,3.5,3.5h6c.276,0,.5.224.5.5Zm3-18c0-.276-.224-.5-.5-.5H4.5c-.276,0-.5.224-.5.5s.224.5.5.5h9c.276,0,.5-.224.5-.5Zm-2,5c0-.276-.224-.5-.5-.5h-7c-.276,0-.5.224-.5.5s.224.5.5.5h7c.276,0,.5-.224.5-.5Zm-7.5,4.5c-.276,0-.5.224-.5.5s.224.5.5.5h4c.276,0,.5-.224.5-.5s-.224-.5-.5-.5h-4Zm19.5,2.5c0,3.584-2.916,6.5-6.5,6.5s-6.5-2.916-6.5-6.5,2.916-6.5,6.5-6.5,6.5,2.916,6.5,6.5Zm-1,0c0-3.032-2.468-5.5-5.5-5.5s-5.5,2.468-5.5,5.5,2.468,5.5,5.5,5.5,5.5-2.468,5.5-5.5Zm-3.347-.88l-2.218,2.129c-.336.332-.886.332-1.224.002l-1.131-1.108c-.196-.191-.513-.19-.707.008-.193.197-.189.514.008.707l1.131,1.108c.362.354.838.531,1.312.531s.95-.178,1.31-.532l2.213-2.124c.199-.19.205-.508.014-.707-.19-.198-.507-.205-.707-.014Z"/></svg>
