<?xml version="1.0" encoding="UTF-8"?>
<svg xmlns="http://www.w3.org/2000/svg" fill="#E0144C" id="Layer_1" data-name="Layer 1" viewBox="0 0 24 24" width="512" height="512"><path d="M23.18,9.65c-.5-.45-1.14-.69-1.81-.65-.67,.03-1.29,.32-1.74,.82l-3.73,4.1c-.31-1.11-1.33-1.92-2.54-1.92H3.5c-1.93,0-3.5,1.57-3.5,3.5v5c0,1.93,1.57,3.5,3.5,3.5h5.96c2.71,0,5.29-1.16,7.09-3.18l6.81-7.64c.91-1.02,.83-2.6-.18-3.53Zm-.56,2.86l-6.81,7.64c-1.61,1.81-3.92,2.85-6.35,2.85H3.5c-1.38,0-2.5-1.12-2.5-2.5v-5c0-1.38,1.12-2.5,2.5-2.5H13.36c.91,0,1.64,.74,1.64,1.64,0,.81-.61,1.51-1.4,1.62l-6.16,.74c-.27,.03-.47,.28-.44,.56,.03,.27,.27,.48,.56,.44l6.17-.74c1.02-.15,1.85-.88,2.15-1.82l4.49-4.94c.27-.3,.64-.47,1.05-.49,.4-.02,.79,.12,1.09,.39,.61,.56,.66,1.51,.11,2.12ZM5,3.24c0-1.24,1.01-2.24,2.24-2.24h.76V.5c0-.28,.22-.5,.5-.5s.5,.22,.5,.5v.5h.55c.98,0,1.89,.53,2.38,1.38,.14,.24,.06,.54-.18,.68-.24,.14-.55,.06-.68-.18-.31-.54-.89-.88-1.52-.88h-2.31c-.69,0-1.24,.56-1.24,1.24,0,.54,.34,1.01,.85,1.18l3.62,1.21c.92,.31,1.53,1.16,1.53,2.13,0,1.24-1.01,2.24-2.24,2.24h-.76v.5c0,.28-.22,.5-.5,.5s-.5-.22-.5-.5v-.5h-.55c-.98,0-1.89-.53-2.38-1.38-.14-.24-.06-.54,.18-.68,.24-.14,.55-.06,.68,.18,.31,.54,.89,.88,1.52,.88h2.31c.69,0,1.24-.56,1.24-1.24,0-.54-.34-1.01-.85-1.18l-3.62-1.21c-.92-.31-1.53-1.16-1.53-2.13Z"/></svg>
