<svg width="316" height="285" viewBox="0 0 316 285" fill="none" xmlns="http://www.w3.org/2000/svg">
<g clip-path="url(#clip0_3077_7099)">
<path d="M108.694 13.7126L56.9376 43.6233C52.952 45.9267 52.9377 51.675 56.9118 53.9981L108.668 84.2529C110.518 85.3341 112.803 85.347 114.665 84.2868L167.792 54.0322C171.845 51.7244 171.83 45.878 167.767 43.5901L114.639 13.6791C112.791 12.6384 110.53 12.6511 108.694 13.7126Z" fill="#38207F"/>
<path d="M236.976 2.73702L207.847 19.7082C203.886 22.0161 203.872 27.734 207.822 30.0616L236.951 47.228C238.809 48.3234 241.113 48.3365 242.984 47.2623L272.885 30.0961C276.913 27.7834 276.899 21.9674 272.859 19.6746L242.958 2.70323C241.1 1.64871 238.822 1.66158 236.976 2.73702Z" fill="#38207F"/>
<path d="M86.9904 162.778L226.496 81.7448C228.354 80.6655 230.648 80.6622 232.509 81.7362L378.986 166.261C380.85 167.336 383.147 167.332 385.006 166.248L530.044 81.7225C531.876 80.6549 534.136 80.6335 535.988 81.6663L607.999 121.826C609.858 122.863 612.127 122.837 613.962 121.759L681.996 81.7657C683.854 80.6739 686.154 80.6617 688.022 81.7336L906.939 207.303C910.956 209.607 910.959 215.399 906.945 217.708L772.102 295.265C768.077 297.58 768.094 303.392 772.131 305.684L831.412 339.34C835.44 341.627 835.468 347.422 831.462 349.747L622.841 470.867C618.879 473.167 618.852 478.879 622.792 481.216L755.303 559.84C759.221 562.164 759.221 567.836 755.303 570.16L617.015 652.211C615.152 653.316 612.839 653.332 610.961 652.251L385.014 522.234C383.15 521.162 380.854 521.169 378.997 522.253L232.539 607.726C230.663 608.822 228.34 608.817 226.468 607.713L11.7863 481.179C7.84467 478.855 7.84935 473.152 11.7948 470.836L220.666 348.187C224.62 345.865 224.614 340.146 220.654 337.833L86.9006 259.699C82.9286 257.379 82.9376 251.636 86.9167 249.328L144 216.22C147.997 213.902 147.983 208.124 143.974 205.825L87.0197 173.171C83.0119 170.873 82.9956 165.098 86.9904 162.778Z" fill="#38207F"/>
<path d="M178.849 195.11L216 173.661V141.392L178.849 162.842V195.11Z" fill="#352071"/>
<path d="M139 172.104L178.849 195.11V162.842L139 139.836V172.104Z" fill="#422C83"/>
<path d="M178.849 162.842L216 141.393L176.151 118.387L139 139.836L178.849 162.842Z" fill="#4B3295"/>
<path d="M178.861 160.973L213.25 141.13V121.362L178.861 141.218V160.973Z" fill="#220771"/>
<path d="M141.999 139.686L178.861 160.972V141.217L141.999 119.918V139.686Z" fill="#1F0865"/>
<path d="M178.861 141.218L213.25 121.362L176.376 100.076L141.999 119.919L178.861 141.218Z" fill="#F7F5ED"/>
<path d="M178.849 157.333L216 135.884V98.0054L178.849 119.455V157.333Z" fill="#352071"/>
<path d="M139 134.328L178.849 157.333V119.455L139 96.4492V134.328Z" fill="#422C83"/>
<path d="M178.849 119.455L216 98.0057L176.151 75L139 96.4494L178.849 119.455Z" fill="#432A8C"/>
<path d="M141.486 103.138V113.178C141.542 113.736 141.728 114.273 142.029 114.746C142.329 115.219 142.737 115.615 143.218 115.902L174.344 133.875C175.298 134.427 176.076 134.101 176.076 133.147V123.169C176.02 122.611 175.834 122.074 175.533 121.601C175.233 121.128 174.825 120.733 174.344 120.445L143.218 102.472C142.252 101.857 141.486 102.184 141.486 103.138Z" fill="#220771"/>
<path d="M173.389 122.955C173.598 123.079 173.775 123.251 173.905 123.456C174.036 123.661 174.117 123.893 174.142 124.135C174.142 124.549 173.803 124.687 173.389 124.449C173.181 124.325 173.005 124.153 172.877 123.948C172.748 123.743 172.67 123.51 172.648 123.269C172.648 122.855 172.975 122.717 173.389 122.955Z" fill="white"/>
<path d="M169.248 120.534C169.457 120.658 169.634 120.83 169.765 121.034C169.896 121.239 169.977 121.472 170.001 121.714C170.001 122.128 169.663 122.266 169.248 122.027C169.042 121.901 168.868 121.729 168.74 121.524C168.611 121.32 168.532 121.088 168.508 120.848C168.508 120.534 168.847 120.333 169.248 120.534Z" fill="white"/>
<path d="M165.12 118.174C165.328 118.298 165.504 118.469 165.632 118.674C165.761 118.879 165.839 119.112 165.861 119.353C165.861 119.767 165.534 119.918 165.12 119.68C164.91 119.553 164.733 119.38 164.602 119.173C164.471 118.966 164.391 118.731 164.367 118.487C164.367 118.086 164.706 117.935 165.12 118.174Z" fill="#4416E1"/>
<path d="M160.977 115.79C161.186 115.914 161.363 116.085 161.493 116.29C161.624 116.495 161.705 116.728 161.73 116.969C161.73 117.384 161.391 117.522 160.977 117.283C160.768 117.159 160.591 116.988 160.46 116.783C160.329 116.578 160.248 116.345 160.224 116.103C160.224 115.689 160.563 115.514 160.977 115.79Z" fill="#4416E1"/>
<path d="M156.836 113.405C157.045 113.529 157.222 113.7 157.353 113.905C157.483 114.11 157.564 114.343 157.589 114.585C157.589 114.999 157.25 115.137 156.836 114.898C156.628 114.774 156.453 114.603 156.324 114.398C156.195 114.192 156.117 113.96 156.096 113.719C156.058 113.304 156.422 113.166 156.836 113.405Z" fill="white"/>
<path d="M152.705 111.008C152.913 111.132 153.088 111.303 153.217 111.508C153.346 111.713 153.424 111.946 153.445 112.187C153.445 112.602 153.119 112.74 152.705 112.501C152.496 112.377 152.319 112.206 152.188 112.001C152.057 111.796 151.976 111.563 151.952 111.321C151.952 110.907 152.291 110.769 152.705 111.008Z" fill="white"/>
<path d="M148.526 108.623C148.735 108.747 148.912 108.918 149.043 109.123C149.173 109.328 149.254 109.561 149.279 109.802C149.279 110.217 148.94 110.355 148.526 110.116C148.317 109.992 148.14 109.821 148.009 109.616C147.879 109.411 147.798 109.178 147.773 108.936C147.811 108.522 148.149 108.384 148.526 108.623Z" fill="#4416E1"/>
<path d="M144.424 106.226C144.642 106.358 144.825 106.541 144.956 106.76C145.087 106.979 145.163 107.226 145.177 107.481C145.177 107.882 144.838 108.033 144.424 107.795C144.216 107.671 144.04 107.499 143.912 107.294C143.783 107.089 143.705 106.856 143.683 106.615C143.683 106.138 144.01 105.987 144.424 106.226Z" fill="#4416E1"/>
<path d="M173.389 128.641C173.598 128.765 173.775 128.937 173.905 129.142C174.036 129.346 174.117 129.579 174.142 129.821C174.142 130.235 173.803 130.373 173.389 130.135C173.181 130.011 173.005 129.839 172.877 129.634C172.748 129.429 172.67 129.196 172.648 128.955C172.648 128.541 172.975 128.403 173.389 128.641Z" fill="white"/>
<path d="M169.248 126.257C169.457 126.381 169.634 126.553 169.765 126.758C169.896 126.963 169.977 127.195 170.001 127.437C170.001 127.851 169.663 127.989 169.248 127.751C169.042 127.625 168.868 127.452 168.74 127.248C168.611 127.043 168.532 126.811 168.508 126.571C168.508 126.157 168.847 126.019 169.248 126.257Z" fill="#4416E1"/>
<path d="M165.12 123.859C165.327 123.985 165.501 124.157 165.63 124.362C165.758 124.567 165.837 124.799 165.861 125.039C165.861 125.453 165.534 125.604 165.12 125.365C164.912 125.241 164.736 125.069 164.605 124.864C164.474 124.66 164.393 124.427 164.367 124.186C164.367 123.772 164.706 123.621 165.12 123.859Z" fill="#4416E1"/>
<path d="M160.977 121.475C161.186 121.599 161.363 121.77 161.493 121.975C161.624 122.18 161.705 122.413 161.73 122.655C161.73 123.069 161.391 123.207 160.977 122.968C160.768 122.844 160.591 122.673 160.46 122.468C160.329 122.263 160.248 122.03 160.224 121.789C160.224 121.374 160.563 121.236 160.977 121.475Z" fill="white"/>
<path d="M156.836 119.09C157.045 119.214 157.222 119.385 157.353 119.59C157.483 119.795 157.564 120.028 157.589 120.27C157.589 120.684 157.25 120.822 156.836 120.583C156.628 120.459 156.453 120.288 156.324 120.083C156.195 119.877 156.117 119.645 156.096 119.404C156.058 118.989 156.422 118.851 156.836 119.09Z" fill="white"/>
<path d="M152.705 116.693C152.913 116.817 153.088 116.989 153.217 117.194C153.346 117.399 153.424 117.631 153.445 117.873C153.445 118.287 153.119 118.437 152.705 118.199C152.495 118.073 152.318 117.899 152.187 117.692C152.056 117.485 151.976 117.25 151.952 117.007C151.952 116.605 152.291 116.454 152.705 116.693Z" fill="white"/>
<path d="M148.526 114.258C148.735 114.382 148.912 114.554 149.043 114.758C149.173 114.963 149.254 115.196 149.279 115.438C149.279 115.852 148.94 115.99 148.526 115.752C148.317 115.627 148.14 115.456 148.009 115.251C147.879 115.046 147.798 114.814 147.773 114.572C147.811 114.258 148.149 114.07 148.526 114.258Z" fill="#4416E1"/>
<path d="M144.424 111.924C144.633 112.048 144.81 112.219 144.94 112.424C145.071 112.629 145.152 112.861 145.177 113.103C145.177 113.517 144.838 113.656 144.424 113.417C144.216 113.293 144.04 113.121 143.912 112.916C143.783 112.711 143.705 112.478 143.683 112.237C143.683 111.823 144.01 111.748 144.424 111.924Z" fill="white"/>
<path d="M141.486 120.107V130.072C141.542 130.631 141.728 131.17 142.028 131.645C142.329 132.12 142.736 132.518 143.218 132.808L174.344 150.768C175.298 151.321 176.076 150.994 176.076 150.04V140.075C176.02 139.516 175.834 138.977 175.534 138.502C175.233 138.027 174.826 137.629 174.344 137.339L143.218 119.366C142.252 118.814 141.486 119.14 141.486 120.107Z" fill="#220771"/>
<path d="M173.389 139.913C173.598 140.037 173.775 140.208 173.905 140.413C174.036 140.618 174.117 140.851 174.142 141.092C174.142 141.507 173.803 141.657 173.389 141.419C173.181 141.292 173.005 141.118 172.877 140.911C172.748 140.704 172.67 140.469 172.648 140.226C172.648 139.825 172.975 139.674 173.389 139.913Z" fill="white"/>
<path d="M169.248 137.527C169.457 137.651 169.634 137.823 169.765 138.028C169.896 138.232 169.977 138.465 170.001 138.707C170.001 139.121 169.663 139.259 169.248 139.021C169.042 138.894 168.868 138.722 168.74 138.517C168.611 138.313 168.532 138.081 168.508 137.841C168.508 137.427 168.847 137.289 169.248 137.527Z" fill="white"/>
<path d="M165.12 135.142C165.328 135.266 165.504 135.438 165.632 135.643C165.761 135.848 165.839 136.081 165.861 136.322C165.861 136.736 165.534 136.874 165.12 136.636C164.911 136.512 164.734 136.34 164.604 136.135C164.473 135.931 164.392 135.698 164.367 135.456C164.367 135.042 164.706 134.904 165.12 135.142Z" fill="#4416E1"/>
<path d="M160.977 132.746C161.186 132.87 161.363 133.042 161.493 133.247C161.624 133.451 161.705 133.684 161.73 133.926C161.73 134.34 161.391 134.478 160.977 134.24C160.768 134.115 160.591 133.944 160.46 133.739C160.329 133.534 160.248 133.302 160.224 133.06C160.224 132.646 160.563 132.508 160.977 132.746Z" fill="#4416E1"/>
<path d="M156.836 130.361C157.045 130.485 157.222 130.657 157.353 130.862C157.483 131.066 157.564 131.299 157.589 131.541C157.589 131.955 157.25 132.093 156.836 131.855C156.628 131.731 156.453 131.559 156.324 131.354C156.195 131.149 156.117 130.916 156.096 130.675C156.058 130.261 156.422 130.123 156.836 130.361Z" fill="white"/>
<path d="M152.705 127.964C152.92 128.098 153.099 128.282 153.228 128.501C153.357 128.719 153.432 128.965 153.445 129.219C153.445 129.62 153.119 129.771 152.705 129.532C152.496 129.408 152.319 129.237 152.188 129.032C152.057 128.827 151.976 128.594 151.952 128.353C151.952 127.876 152.291 127.725 152.705 127.964Z" fill="white"/>
<path d="M148.526 125.554C148.735 125.678 148.912 125.85 149.043 126.055C149.173 126.26 149.254 126.492 149.279 126.734C149.279 127.148 148.94 127.286 148.526 127.048C148.317 126.924 148.14 126.752 148.009 126.547C147.879 126.342 147.798 126.11 147.773 125.868C147.811 125.479 148.149 125.341 148.526 125.554Z" fill="#4416E1"/>
<path d="M144.424 123.194C144.633 123.318 144.81 123.49 144.94 123.694C145.071 123.899 145.152 124.132 145.177 124.374C145.177 124.788 144.838 124.926 144.424 124.688C144.216 124.563 144.04 124.392 143.912 124.187C143.783 123.982 143.705 123.749 143.683 123.508C143.683 123.043 144.01 122.956 144.424 123.194Z" fill="white"/>
<path d="M173.389 145.635C173.597 145.76 173.774 145.931 173.904 146.136C174.035 146.341 174.116 146.573 174.142 146.815C174.142 147.229 173.803 147.379 173.389 147.141C173.181 147.017 173.005 146.845 172.877 146.64C172.748 146.435 172.67 146.202 172.648 145.961C172.648 145.509 172.975 145.359 173.389 145.635Z" fill="white"/>
<path d="M169.248 143.213C169.457 143.337 169.634 143.509 169.765 143.714C169.896 143.918 169.977 144.151 170.001 144.393C170.001 144.807 169.663 144.945 169.248 144.707C169.042 144.58 168.868 144.408 168.74 144.203C168.611 143.999 168.532 143.767 168.508 143.527C168.508 143.125 168.847 142.975 169.248 143.213Z" fill="white"/>
<path d="M165.12 140.828C165.328 140.952 165.504 141.124 165.632 141.329C165.761 141.534 165.839 141.767 165.861 142.008C165.861 142.422 165.534 142.56 165.12 142.321C164.911 142.197 164.734 142.026 164.604 141.821C164.473 141.616 164.392 141.384 164.367 141.142C164.367 140.728 164.706 140.615 165.12 140.828Z" fill="#4416E1"/>
<path d="M160.977 138.431C161.186 138.555 161.363 138.727 161.493 138.932C161.624 139.136 161.705 139.369 161.73 139.611C161.73 140.025 161.391 140.176 160.977 139.937C160.768 139.812 160.592 139.641 160.461 139.436C160.331 139.231 160.249 138.999 160.224 138.757C160.224 138.343 160.563 138.193 160.977 138.431Z" fill="white"/>
<path d="M156.836 136.047C157.045 136.171 157.222 136.342 157.353 136.547C157.483 136.752 157.564 136.985 157.589 137.227C157.589 137.641 157.25 137.779 156.836 137.54C156.628 137.416 156.453 137.245 156.324 137.04C156.195 136.835 156.117 136.602 156.096 136.361C156.058 135.946 156.422 135.808 156.836 136.047Z" fill="white"/>
<path d="M152.705 133.662C152.913 133.786 153.088 133.957 153.217 134.162C153.346 134.367 153.424 134.6 153.445 134.841C153.445 135.256 153.119 135.394 152.705 135.155C152.496 135.031 152.319 134.86 152.188 134.655C152.057 134.45 151.976 134.217 151.952 133.975C151.952 133.561 152.291 133.423 152.705 133.662Z" fill="#4416E1"/>
<path d="M148.526 131.265C148.735 131.389 148.912 131.561 149.043 131.766C149.173 131.97 149.254 132.203 149.279 132.445C149.279 132.859 148.94 133.01 148.526 132.759C148.317 132.634 148.14 132.463 148.009 132.258C147.879 132.053 147.798 131.821 147.773 131.579C147.811 131.177 148.149 131.027 148.526 131.265Z" fill="#4416E1"/>
<path d="M144.424 128.88C144.633 129.004 144.81 129.176 144.94 129.381C145.071 129.585 145.152 129.818 145.177 130.06C145.177 130.474 144.838 130.612 144.424 130.374C144.216 130.25 144.04 130.078 143.912 129.873C143.783 129.668 143.705 129.435 143.683 129.194C143.683 128.78 144.01 128.642 144.424 128.88Z" fill="white"/>
<path d="M213.639 104.594V114.56C213.583 115.119 213.398 115.658 213.097 116.133C212.796 116.608 212.389 117.006 211.907 117.296L183.254 133.838C182.3 134.39 181.522 134.051 181.522 133.097V123.132C181.578 122.573 181.764 122.034 182.064 121.559C182.365 121.084 182.772 120.686 183.254 120.396L211.907 103.854C212.861 103.302 213.639 103.641 213.639 104.594Z" fill="#ECEBF0"/>
<path opacity="0.4" fill-rule="evenodd" clip-rule="evenodd" d="M201.957 109.598L212.887 116.429C212.617 116.775 212.285 117.068 211.907 117.296L183.254 133.838C182.3 134.39 181.522 134.051 181.522 133.097V123.132C181.578 122.573 181.764 122.034 182.064 121.559C182.365 121.084 182.772 120.686 183.254 120.396L201.957 109.598Z" fill="#220771"/>
<path opacity="0.9" d="M213.639 104.594V114.56C213.583 115.119 213.398 115.658 213.097 116.133C212.796 116.608 212.389 117.006 211.907 117.296L183.254 133.838C182.3 134.39 181.522 134.051 181.522 133.097V123.132C181.578 122.573 181.764 122.034 182.064 121.559C182.365 121.084 182.772 120.686 183.254 120.396L211.907 103.854C212.861 103.302 213.639 103.641 213.639 104.594Z" fill="#432A8C"/>
<path d="M213.639 159.594V169.56C213.583 170.119 213.398 170.658 213.097 171.133C212.796 171.608 212.389 172.006 211.907 172.296L183.254 188.838C182.3 189.39 181.522 189.051 181.522 188.097V178.132C181.578 177.573 181.764 177.034 182.064 176.559C182.365 176.084 182.772 175.686 183.254 175.396L211.907 158.854C212.861 158.302 213.639 158.641 213.639 159.594Z" fill="#ECEBF0"/>
<path d="M213.639 159.594V169.56C213.583 170.119 213.398 170.658 213.097 171.133C212.796 171.608 212.389 172.006 211.907 172.296L183.254 188.838C182.3 189.39 181.522 189.051 181.522 188.097V178.132C181.578 177.573 181.764 177.034 182.064 176.559C182.365 176.084 182.772 175.686 183.254 175.396L211.907 158.854C212.861 158.302 213.639 158.641 213.639 159.594Z" fill="#220771"/>
<path d="M183.717 124.04C183.518 124.159 183.35 124.322 183.225 124.517C183.1 124.712 183.023 124.933 183 125.164C183 125.558 183.323 125.701 183.717 125.474C183.915 125.354 184.082 125.188 184.205 124.991C184.327 124.794 184.402 124.57 184.422 124.339C184.422 123.957 184.111 123.813 183.717 124.04Z" fill="white"/>
<path d="M187.659 121.769C187.46 121.887 187.292 122.051 187.167 122.246C187.043 122.441 186.966 122.662 186.942 122.892C186.942 123.287 187.265 123.418 187.659 123.191C187.855 123.071 188.021 122.907 188.143 122.712C188.266 122.517 188.341 122.297 188.364 122.068C188.364 121.673 188.042 121.542 187.659 121.769Z" fill="white"/>
<path d="M191.59 119.499C191.392 119.617 191.225 119.78 191.102 119.975C190.979 120.171 190.905 120.392 190.885 120.622C190.885 121.016 191.195 121.148 191.59 120.921C191.789 120.802 191.957 120.639 192.082 120.444C192.206 120.249 192.283 120.028 192.307 119.797C192.307 119.403 191.984 119.271 191.59 119.499Z" fill="white"/>
<path d="M195.535 117.217C195.336 117.335 195.167 117.498 195.043 117.694C194.918 117.889 194.841 118.11 194.818 118.34C194.818 118.735 195.14 118.866 195.535 118.639C195.734 118.521 195.902 118.358 196.027 118.163C196.151 117.968 196.228 117.746 196.252 117.516C196.252 117.121 195.929 116.99 195.535 117.217Z" fill="white"/>
<path d="M199.477 114.946C199.278 115.064 199.11 115.227 198.985 115.423C198.861 115.618 198.784 115.839 198.76 116.069C198.76 116.464 199.083 116.595 199.477 116.368C199.675 116.25 199.842 116.087 199.965 115.891C200.087 115.696 200.162 115.474 200.182 115.245C200.218 114.85 199.871 114.719 199.477 114.946Z" fill="white"/>
<path d="M203.411 112.663C203.206 112.791 203.035 112.967 202.912 113.175C202.79 113.383 202.719 113.617 202.706 113.858C202.706 114.241 203.016 114.384 203.411 114.157C203.61 114.039 203.778 113.876 203.903 113.681C204.027 113.485 204.104 113.264 204.128 113.034C204.128 112.58 203.805 112.436 203.411 112.663Z" fill="white"/>
<path d="M207.389 110.37C207.19 110.488 207.022 110.651 206.897 110.846C206.773 111.041 206.696 111.263 206.672 111.493C206.672 111.887 206.995 112.019 207.389 111.792C207.588 111.673 207.757 111.51 207.881 111.315C208.006 111.12 208.083 110.899 208.106 110.668C208.07 110.298 207.748 110.166 207.389 110.37Z" fill="white"/>
<path d="M211.295 108.122C211.096 108.24 210.928 108.404 210.803 108.599C210.679 108.794 210.602 109.015 210.578 109.246C210.578 109.64 210.901 109.771 211.295 109.544C211.493 109.426 211.66 109.263 211.783 109.067C211.905 108.872 211.98 108.651 212 108.421C212 107.979 211.689 107.895 211.295 108.122Z" fill="white"/>
<path d="M183.717 129.489C183.519 129.608 183.351 129.771 183.226 129.966C183.102 130.161 183.024 130.382 183 130.612C183 131.006 183.323 131.15 183.717 130.923C183.915 130.804 184.082 130.641 184.205 130.446C184.327 130.251 184.402 130.029 184.422 129.799C184.422 129.369 184.111 129.226 183.717 129.489Z" fill="white"/>
<path d="M187.659 127.183C187.46 127.301 187.292 127.464 187.167 127.659C187.043 127.854 186.966 128.076 186.942 128.306C186.942 128.7 187.265 128.832 187.659 128.605C187.855 128.484 188.021 128.32 188.143 128.126C188.266 127.931 188.341 127.71 188.364 127.481C188.364 127.099 188.042 126.956 187.659 127.183Z" fill="white"/>
<path d="M191.59 124.912C191.392 125.03 191.225 125.193 191.102 125.389C190.979 125.584 190.905 125.805 190.885 126.035C190.885 126.429 191.195 126.561 191.59 126.334C191.789 126.216 191.957 126.052 192.082 125.857C192.206 125.662 192.283 125.441 192.307 125.211C192.307 124.816 191.984 124.709 191.59 124.912Z" fill="white"/>
<path d="M195.535 122.63C195.336 122.748 195.167 122.911 195.043 123.106C194.918 123.301 194.841 123.523 194.818 123.753C194.818 124.147 195.14 124.291 195.535 124.064C195.733 123.945 195.901 123.781 196.025 123.587C196.15 123.392 196.227 123.17 196.252 122.941C196.252 122.546 195.929 122.403 195.535 122.63Z" fill="white"/>
<path d="M199.477 120.36C199.278 120.478 199.11 120.641 198.985 120.836C198.861 121.031 198.784 121.253 198.76 121.483C198.76 121.877 199.083 122.009 199.477 121.782C199.675 121.664 199.842 121.5 199.965 121.305C200.087 121.11 200.162 120.888 200.182 120.658C200.218 120.264 199.871 120.133 199.477 120.36Z" fill="white"/>
<path d="M203.411 118.089C203.213 118.207 203.046 118.37 202.923 118.565C202.8 118.761 202.726 118.982 202.706 119.212C202.706 119.606 203.016 119.738 203.411 119.511C203.61 119.392 203.778 119.229 203.903 119.034C204.027 118.839 204.104 118.618 204.128 118.387C204.128 117.993 203.805 117.862 203.411 118.089Z" fill="white"/>
<path d="M207.389 115.807C207.19 115.925 207.022 116.088 206.897 116.283C206.773 116.478 206.696 116.7 206.672 116.93C206.672 117.324 206.995 117.468 207.389 117.229C207.588 117.111 207.757 116.947 207.881 116.752C208.006 116.557 208.083 116.336 208.106 116.105C208.07 115.723 207.748 115.58 207.389 115.807Z" fill="white"/>
<path d="M211.295 113.536C211.096 113.654 210.928 113.818 210.803 114.013C210.679 114.208 210.602 114.429 210.578 114.659C210.578 115.054 210.901 115.185 211.295 114.958C211.493 114.84 211.66 114.677 211.783 114.481C211.905 114.286 211.98 114.065 212 113.835C212 113.441 211.689 113.309 211.295 113.536Z" fill="white"/>
</g>
<defs>
<clipPath id="clip0_3077_7099">
<rect width="316" height="285" fill="white"/>
</clipPath>
</defs>
</svg>
