<?xml version="1.0" encoding="UTF-8"?>
<svg xmlns="http://www.w3.org/2000/svg" fill="#C20000" id="Layer_1" data-name="Layer 1" viewBox="0 0 24 24" width="512" height="512"><path d="M18.5,3H5.5C2.467,3,0,5.467,0,8.5v10c0,1.379,1.122,2.5,2.5,2.5H21.5c1.379,0,2.5-1.121,2.5-2.5V8.5c0-3.033-2.468-5.5-5.5-5.5ZM1,18.5V8.5c0-2.481,2.019-4.5,4.5-4.5s4.5,2.019,4.5,4.5v10c0,.827-.673,1.5-1.5,1.5H2.5c-.827,0-1.5-.673-1.5-1.5Zm22,0c0,.827-.673,1.5-1.5,1.5H10.499c.315-.418,.501-.938,.501-1.5V8.5c0-1.858-.926-3.504-2.341-4.5h9.841c2.481,0,4.5,2.019,4.5,4.5v10Zm-3-8v2c0,.276-.224,.5-.5,.5s-.5-.224-.5-.5v-1.5h-4.5c-.276,0-.5-.224-.5-.5s.224-.5,.5-.5h5c.276,0,.5,.224,.5,.5Zm-12,0c0,.276-.224,.5-.5,.5H3.5c-.276,0-.5-.224-.5-.5s.224-.5,.5-.5H7.5c.276,0,.5,.224,.5,.5Z"/></svg>
